<svg xmlns="http://www.w3.org/2000/svg" viewBox="0 0 100 100" width="100" height="100" role="img" aria-label="GiraCanchera"><title>GiraCanchera</title><path d="M50 97C50 97 14 64 14 40a36 36 0 1 1 72 0C86 64 50 97 50 97Z" fill="none" stroke="#3FB950" stroke-width="2.6" stroke-linejoin="round"/><g transform="translate(50 40) scale(.86) translate(-50 -40)"><path d="M50 97C50 97 14 64 14 40a36 36 0 1 1 72 0C86 64 50 97 50 97Z" fill="#3FB950"/><circle cx="50" cy="40" r="24" fill="#F0F6FC"/><clipPath id="b"><circle cx="50" cy="40" r="24"/></clipPath><g clip-path="url(#b)"><polygon points="50.00,32.80 56.85,37.78 54.23,45.82 45.77,45.82 43.15,37.78" fill="#0D1117" stroke="#0D1117" stroke-width="1" stroke-linejoin="round"/><polygon points="50.00,22.96 43.84,18.48 46.19,11.24 53.81,11.24 56.16,18.48" fill="#0D1117" stroke="#0D1117" stroke-width="1" stroke-linejoin="round"/><polygon points="66.21,34.73 68.56,27.49 76.18,27.49 78.53,34.73 72.37,39.21" fill="#0D1117" stroke="#0D1117" stroke-width="1" stroke-linejoin="round"/><polygon points="60.02,53.79 67.63,53.79 69.99,61.03 63.82,65.51 57.66,61.03" fill="#0D1117" stroke="#0D1117" stroke-width="1" stroke-linejoin="round"/><polygon points="39.98,53.79 42.34,61.03 36.18,65.51 30.01,61.03 32.37,53.79" fill="#0D1117" stroke="#0D1117" stroke-width="1" stroke-linejoin="round"/><polygon points="33.79,34.73 27.63,39.21 21.47,34.73 23.82,27.49 31.44,27.49" fill="#0D1117" stroke="#0D1117" stroke-width="1" stroke-linejoin="round"/><g stroke="#0D1117" stroke-width="1.2" stroke-linecap="round" fill="none"><path d="M50.00 32.80L50.00 22.96"/><path d="M56.85 37.78L66.21 34.73"/><path d="M54.23 45.82L60.02 53.79"/><path d="M45.77 45.82L39.98 53.79"/><path d="M43.15 37.78L33.79 34.73"/></g></g><circle cx="50" cy="40" r="24" fill="none" stroke="#0D1117" stroke-width="1.7"/></g></svg>